<svg width="60" height="60" viewBox="0 0 60 60" fill="none" xmlns="http://www.w3.org/2000/svg">
<g clip-path="url(#clip0_254_1690)">
<path d="M14.0625 34.6875L23.4375 32.8125L24.5625 30H1.87502C1.87145 33.1371 2.39393 36.2525 3.42072 39.2168L8.43752 34.6875L11.25 32.8125L14.0625 34.6875Z" fill="#80E770"/>
<path d="M43.7496 30L45.9375 30.9375L51.5625 35.625L57.4864 35.9883C57.9122 34.0207 58.1263 32.0132 58.125 30H43.7496Z" fill="#80E770"/>
<path d="M39.375 36.5625L32.8125 37.5L30 41.25L30.9375 45L35.625 46.875L37.5 48.75L40.3125 46.875L42.1875 44.0625L39.375 42.1875V36.5625Z" fill="#80E770"/>
<path d="M19.6875 45L15.9375 43.125L9.32935 49.0723C13.4166 53.5094 18.8242 56.5122 24.7512 57.6363L25.3125 52.5V48.75L21.5625 47.8125L19.6875 45Z" fill="#80E770"/>
<path d="M12.1875 22.5C15.8119 22.5 18.75 19.5619 18.75 15.9375C18.75 12.3131 15.8119 9.375 12.1875 9.375C8.56313 9.375 5.625 12.3131 5.625 15.9375C5.625 19.5619 8.56313 22.5 12.1875 22.5Z" fill="#80E770"/>
<path d="M47.8125 22.5C51.4369 22.5 54.375 19.5619 54.375 15.9375C54.375 12.3131 51.4369 9.375 47.8125 9.375C44.1881 9.375 41.25 12.3131 41.25 15.9375C41.25 19.5619 44.1881 22.5 47.8125 22.5Z" fill="#80E770"/>
<path d="M30 25.3122C31.9002 25.3125 33.7448 24.6715 35.2353 23.4928C36.7257 22.3141 37.7747 20.6668 38.2123 18.8176C38.6498 16.9685 38.4504 15.0258 37.6463 13.3041C36.8422 11.5825 35.4804 10.1826 33.7816 9.33133C34.2933 8.63268 34.6015 7.80592 34.6719 6.94278C34.7424 6.07964 34.5723 5.21386 34.1806 4.44148C33.789 3.6691 33.191 3.02033 32.453 2.56713C31.7151 2.11393 30.866 1.87402 30 1.87402C29.134 1.87402 28.2849 2.11393 27.5469 2.56713C26.809 3.02033 26.211 3.6691 25.8193 4.44148C25.4276 5.21386 25.2576 6.07964 25.328 6.94278C25.3984 7.80592 25.7066 8.63268 26.2183 9.33133C24.5195 10.1826 23.1578 11.5825 22.3536 13.3041C21.5495 15.0258 21.3501 16.9685 21.7877 18.8176C22.2252 20.6668 23.2742 22.3141 24.7646 23.4928C26.2551 24.6715 28.0998 25.3125 30 25.3122Z" fill="#80E770"/>
<path d="M58.125 29.0624H48.75V23.3765C50.6429 23.138 52.3737 22.1871 53.5901 20.7174C54.8066 19.2477 55.4173 17.3697 55.2978 15.4656C55.1783 13.5615 54.3377 11.7746 52.9471 10.4684C51.5564 9.16233 49.7203 8.43528 47.8125 8.43528C45.9047 8.43528 44.0686 9.16233 42.6779 10.4684C41.2873 11.7746 40.4467 13.5615 40.3272 15.4656C40.2077 17.3697 40.8184 19.2477 42.0349 20.7174C43.2513 22.1871 44.9821 23.138 46.875 23.3765V24.9245L45.6633 23.7116C45.4874 23.5357 45.2488 23.4369 45 23.4369C44.7512 23.4369 44.5126 23.5357 44.3367 23.7116C44.1608 23.8875 44.062 24.1261 44.062 24.3749C44.062 24.6237 44.1608 24.8623 44.3367 25.0382L46.875 27.5753V29.0624H30.9375V26.203C32.8725 26.0082 34.699 25.2166 36.1642 23.9378C37.6294 22.659 38.6606 20.9562 39.1152 19.0653C39.5698 17.1744 39.4251 15.189 38.7014 13.3839C37.9776 11.5789 36.7104 10.0435 35.0754 8.99051C35.4851 8.13308 35.6709 7.18582 35.6154 6.23715C35.56 5.28848 35.2651 4.36933 34.7582 3.56547C34.2514 2.76161 33.5492 2.09926 32.7172 1.64022C31.8851 1.18118 30.9503 0.94043 30 0.94043C29.0497 0.94043 28.1149 1.18118 27.2828 1.64022C26.4508 2.09926 25.7486 2.76161 25.2418 3.56547C24.7349 4.36933 24.44 5.28848 24.3846 6.23715C24.3291 7.18582 24.5149 8.13308 24.9246 8.99051C23.2896 10.0435 22.0224 11.5789 21.2986 13.3839C20.5749 15.189 20.4302 17.1744 20.8848 19.0653C21.3394 20.9562 22.3706 22.659 23.8358 23.9378C25.301 25.2166 27.1275 26.0082 29.0625 26.203V29.0624H13.125V23.3765C15.0179 23.138 16.7487 22.1871 17.9651 20.7174C19.1816 19.2477 19.7923 17.3697 19.6728 15.4656C19.5533 13.5615 18.7127 11.7746 17.3221 10.4684C15.9314 9.16233 14.0953 8.43528 12.1875 8.43528C10.2797 8.43528 8.44357 9.16233 7.05294 10.4684C5.66231 11.7746 4.82169 13.5615 4.70222 15.4656C4.58275 17.3697 5.19339 19.2477 6.40986 20.7174C7.62632 22.1871 9.35714 23.138 11.25 23.3765V24.9245L10.0383 23.7116C9.86237 23.5357 9.62378 23.4369 9.375 23.4369C9.12622 23.4369 8.88763 23.5357 8.71172 23.7116C8.53581 23.8875 8.43698 24.1261 8.43698 24.3749C8.43698 24.6237 8.53581 24.8623 8.71172 25.0382L11.25 27.5753V29.0624H1.875C1.62636 29.0624 1.3879 29.1612 1.21209 29.337C1.03627 29.5128 0.9375 29.7512 0.9375 29.9999C0.937615 35.7478 2.64216 41.3666 5.8356 46.1458C9.02904 50.925 13.5679 54.65 18.8783 56.8496C24.1887 59.0492 30.0322 59.6247 35.6697 58.5034C41.3071 57.3821 46.4855 54.6142 50.55 50.5499C53.2572 47.8575 55.4034 44.6549 56.8646 41.1275C58.3258 37.6001 59.0728 33.8179 59.0625 29.9999C59.0625 29.7512 58.9637 29.5128 58.7879 29.337C58.6121 29.1612 58.3736 29.0624 58.125 29.0624ZM42.1875 15.9374C42.1873 14.8649 42.4937 13.8147 43.0706 12.9106C43.6475 12.0065 44.4709 11.2862 45.4436 10.8345C46.4164 10.3829 47.4979 10.2187 48.5609 10.3614C49.6238 10.5041 50.6238 10.9477 51.443 11.6399C52.2622 12.3321 52.8664 13.2441 53.1845 14.2683C53.5025 15.2926 53.5211 16.3864 53.2381 17.4208C52.9551 18.4553 52.3822 19.3873 51.587 20.107C50.7918 20.8266 49.8075 21.304 48.75 21.4827V18.7499C48.75 18.5012 48.6512 18.2628 48.4754 18.087C48.2996 17.9112 48.0611 17.8124 47.8125 17.8124C47.5639 17.8124 47.3254 17.9112 47.1496 18.087C46.9738 18.2628 46.875 18.5012 46.875 18.7499V21.4827C45.5652 21.2597 44.3763 20.5808 43.5186 19.5661C42.6608 18.5513 42.1893 17.2661 42.1875 15.9374ZM22.5 16.8749C22.4957 15.4824 22.8811 14.1164 23.6125 12.9314C24.344 11.7465 25.3923 10.7898 26.6391 10.1694C26.7609 10.1082 26.8679 10.0212 26.9526 9.91441C27.0374 9.80762 27.0978 9.68364 27.1297 9.5511C27.1616 9.41856 27.1642 9.28066 27.1374 9.14701C27.1105 9.01335 27.0548 8.88716 26.9742 8.77723C26.565 8.21828 26.3186 7.55689 26.2624 6.86644C26.2061 6.17598 26.3423 5.48344 26.6556 4.86564C26.969 4.24783 27.4474 3.7289 28.0377 3.36641C28.6281 3.00391 29.3073 2.81202 30 2.81202C30.6927 2.81202 31.3719 3.00391 31.9623 3.36641C32.5526 3.7289 33.031 4.24783 33.3444 4.86564C33.6577 5.48344 33.7939 6.17598 33.7376 6.86644C33.6814 7.55689 33.435 8.21828 33.0258 8.77723C32.9452 8.88716 32.8895 9.01335 32.8626 9.14701C32.8358 9.28066 32.8384 9.41856 32.8703 9.5511C32.9022 9.68364 32.9626 9.80762 33.0474 9.91441C33.1321 10.0212 33.2391 10.1082 33.3609 10.1694C34.7988 10.89 35.9669 12.0538 36.6927 13.489C37.4186 14.9242 37.6639 16.5548 37.3923 18.14C37.1207 19.7252 36.3466 21.1811 35.1844 22.2928C34.0221 23.4045 32.5332 24.1131 30.9375 24.314V21.0128L34.4133 17.5382C34.5004 17.4511 34.5695 17.3477 34.6166 17.2339C34.6638 17.12 34.688 16.9981 34.688 16.8749C34.688 16.7517 34.6638 16.6297 34.6166 16.5159C34.5695 16.4021 34.5004 16.2987 34.4133 16.2116C34.3262 16.1245 34.2228 16.0554 34.109 16.0083C33.9952 15.9611 33.8732 15.9369 33.75 15.9369C33.6268 15.9369 33.5048 15.9611 33.391 16.0083C33.2772 16.0554 33.1738 16.1245 33.0867 16.2116L30.9375 18.362V14.0624C30.9375 13.8137 30.8387 13.5753 30.6629 13.3995C30.4871 13.2237 30.2486 13.1249 30 13.1249C29.7514 13.1249 29.5129 13.2237 29.3371 13.3995C29.1613 13.5753 29.0625 13.8137 29.0625 14.0624V24.314C27.2512 24.0839 25.5857 23.2017 24.3778 21.8325C23.1699 20.4632 22.5023 18.7008 22.5 16.8749ZM6.5625 15.9374C6.56231 14.8649 6.86872 13.8147 7.44562 12.9106C8.02253 12.0065 8.84588 11.2862 9.81862 10.8345C10.7914 10.3829 11.8729 10.2187 12.9359 10.3614C13.9988 10.5041 14.9988 10.9477 15.818 11.6399C16.6372 12.3321 17.2414 13.2441 17.5595 14.2683C17.8775 15.2926 17.8961 16.3864 17.6131 17.4208C17.3301 18.4553 16.7572 19.3873 15.962 20.107C15.1668 20.8266 14.1825 21.304 13.125 21.4827V18.7499C13.125 18.5012 13.0262 18.2628 12.8504 18.087C12.6746 17.9112 12.4361 17.8124 12.1875 17.8124C11.9389 17.8124 11.7004 17.9112 11.5246 18.087C11.3488 18.2628 11.25 18.5012 11.25 18.7499V21.4827C9.94016 21.2597 8.75133 20.5808 7.89357 19.5661C7.03581 18.5513 6.56435 17.2661 6.5625 15.9374ZM2.82773 30.9374H23.1773L22.7555 31.9933L14.2594 33.6925L11.7703 32.0319C11.6162 31.9293 11.4352 31.8746 11.25 31.8746C11.0648 31.8746 10.8838 31.9293 10.7297 32.0319L7.91719 33.9069C7.87948 33.9327 7.84347 33.9609 7.80937 33.9913L3.8707 37.5479C3.25206 35.3958 2.90175 33.1755 2.82773 30.9374ZM24.375 52.4483L23.9309 56.5112C18.9444 55.3765 14.3825 52.8496 10.7754 49.2245C10.7414 49.1905 10.7086 49.1554 10.6758 49.1214L16.0898 44.2487L19.0453 45.7276L20.782 48.3327C20.9119 48.5264 21.109 48.665 21.3352 48.7218L24.375 49.4823V52.4483ZM49.2246 49.2245C46.7059 51.757 43.7098 53.7648 40.4099 55.1316C37.11 56.4985 33.5718 57.1972 30 57.1874C28.5867 57.1872 27.1755 57.0783 25.7789 56.8616L26.2441 52.6018C26.2478 52.568 26.2498 52.534 26.25 52.4999V48.7499C26.25 48.5408 26.1801 48.3378 26.0514 48.173C25.9227 48.0082 25.7427 47.8912 25.5398 47.8405L22.1414 46.9909L20.468 44.4796C20.3768 44.3443 20.2526 44.2345 20.107 44.1608L16.357 42.2858C16.1885 42.2016 15.9986 42.1701 15.8119 42.1954C15.6253 42.2207 15.4505 42.3016 15.3105 42.4276L9.40195 47.7456C7.29246 45.3094 5.63589 42.5153 4.51055 39.4956L9.01523 35.4292L11.25 33.9386L13.5422 35.4679C13.7494 35.6053 14.0027 35.655 14.2465 35.6061L23.6215 33.7311C23.7743 33.7005 23.9172 33.6323 24.0371 33.5327C24.157 33.433 24.2501 33.3051 24.3082 33.1604L25.1977 30.9374H44.0016L45.4055 31.7143L50.9625 36.3456C51.1158 36.4732 51.3059 36.5484 51.5051 36.56L56.3191 36.8554C55.1042 41.5392 52.6541 45.8109 49.2246 49.2245ZM56.7293 35.0026L51.927 34.7085L47.4023 30.9374H57.1723C57.1257 32.3016 56.9776 33.6604 56.7293 35.0026Z" fill="#177D31"/>
<path d="M42.7074 43.2824L40.3125 41.6857V36.5624C40.3125 36.4281 40.2836 36.2954 40.2278 36.1732C40.1721 36.051 40.0907 35.9423 39.9892 35.8543C39.8878 35.7663 39.7686 35.7011 39.6397 35.6632C39.5109 35.6252 39.3754 35.6154 39.2424 35.6344L32.6799 36.5719C32.558 36.5893 32.4408 36.6305 32.3348 36.6932C32.2289 36.7559 32.1363 36.8389 32.0625 36.9374L29.25 40.6874C29.1664 40.7989 29.1086 40.9277 29.081 41.0643C29.0535 41.201 29.0567 41.342 29.0905 41.4773L30.028 45.2273C30.064 45.3712 30.1336 45.5046 30.2312 45.6164C30.3288 45.7282 30.4515 45.8153 30.5893 45.8704L35.0981 47.6739L36.8371 49.4129C36.9903 49.5661 37.1919 49.6615 37.4075 49.6829C37.6232 49.7043 37.8396 49.6502 38.0199 49.53L40.8324 47.655C40.9354 47.5864 41.0238 47.4981 41.0925 47.3951L42.9675 44.5826C43.0358 44.4802 43.0833 44.3653 43.1072 44.2445C43.1311 44.1237 43.1309 43.9994 43.1068 43.8787C43.0826 43.7579 43.0349 43.6431 42.9664 43.5408C42.8979 43.4385 42.8099 43.3507 42.7074 43.2824ZM39.6364 46.1989L37.6195 47.5436L36.2879 46.212C36.1981 46.1222 36.091 46.0516 35.9731 46.0045L31.731 44.3075L31.018 41.4555L33.3297 38.3734L38.4375 37.6434V42.1874C38.4375 42.3418 38.4756 42.4937 38.5484 42.6298C38.6212 42.7658 38.7265 42.8818 38.8549 42.9674L40.8874 44.3225L39.6364 46.1989Z" fill="#177D31"/>
</g>
<defs>
<clipPath id="clip0_254_1690">
<rect width="60" height="60" fill="white"/>
</clipPath>
</defs>
</svg>
