<svg width="135" height="47" viewBox="0 0 135 47" fill="none" xmlns="http://www.w3.org/2000/svg">
<path d="M130.782 27.6392V24.9835H119.046V21.9177H130.782V19.1644H119.046V16.0791H134.082V27.6392H130.782ZM118.129 28.6937H135V31.779H118.129V28.6937Z" fill="black"/>
<path d="M111.471 21.7028V25.042H108.425V15.7666H111.471V18.6566H112.858V15.6885H115.943V25.5888H112.858V21.7028H111.471ZM107.292 15.8837V24.71H99.6378V15.8837H102.606V17.7193H104.324V15.8837H107.292ZM102.606 22.152H104.324V20.2188H102.606V22.152ZM108.269 25.6083C112.662 25.6083 116.099 26.5065 116.099 29.0841C116.099 31.6617 112.662 32.56 108.269 32.56C103.895 32.56 100.438 31.6617 100.438 29.0841C100.438 26.5065 103.895 25.6083 108.269 25.6083ZM108.269 30.0019C110.632 30.0019 112.584 29.7871 112.584 29.0841C112.584 28.4007 110.632 28.1663 108.269 28.1663C105.906 28.1663 103.953 28.4007 103.953 29.0841C103.953 29.7871 105.906 30.0019 108.269 30.0019Z" fill="black"/>
<path d="M88.8996 21.9372C86.9664 24.4952 84.0764 26.0574 80.8935 26.0574V22.933C84.2131 22.933 87.2984 20.043 87.9037 15.6299L91.2624 16.1571C91.1062 17.2897 90.8133 18.3637 90.3837 19.34L97.433 23.4408L95.7342 26.1355L88.8996 21.9372ZM90.6766 25.0029V28.6936H97.433V31.7789H80.5615V28.6936H87.3179V25.0029H90.6766Z" fill="black"/>
<path d="M77.4387 19.3986H79.3914V22.6011H77.4387V28.0882H74.1386V15.6885H77.4387V19.3986ZM73.3575 25.4911C72.4788 25.8621 70.8581 26.0769 69.2959 26.0769H62.1489V15.8837H72.4007V18.4613H65.41V19.7501H72.0687V22.191H65.41V23.4993H69.5107C71.0143 23.4993 72.4788 23.2846 73.3575 22.9526V25.4911ZM66.0739 27.1314V29.4551H77.673V32.3647H62.7152V27.1314H66.0739Z" fill="black"/>
<g clip-path="url(#clip0_254_1977)">
<path fill-rule="evenodd" clip-rule="evenodd" d="M19.2235 7.25494C23.0538 6.93645 26.9669 7.38105 30.7356 8.70201C43.1675 13.0539 50.0207 25.4812 47.9643 38.2312C41.8333 39.9305 36.482 40.3858 31.8827 39.4816L32.0081 39.1311C32.7792 36.9808 33.2657 34.7642 33.4144 32.5199C34.1112 21.9885 27.447 13.5797 19.2235 7.25494Z" fill="#2B53C0"/>
<path fill-rule="evenodd" clip-rule="evenodd" d="M4.13231 0C27.6726 11.5274 35.2822 25.359 30.5044 38.6754C22.9395 36.0378 16.9955 30.5402 12.9995 22.2468C15.7909 36.3263 28.8389 47.2937 49.968 39.276C26.689 59.1096 -12.8883 35.0567 4.13231 0Z" fill="#7AC016"/>
</g>
<defs>
<clipPath id="clip0_254_1977">
<rect width="49.9698" height="46.4366" fill="white"/>
</clipPath>
</defs>
</svg>
