<svg width="60" height="60" viewBox="0 0 60 60" fill="none" xmlns="http://www.w3.org/2000/svg">
<path d="M16.875 9.375H13.125V14.0625H46.875V9.375H16.875Z" fill="#57A4FF"/>
<path d="M15 24.375V42.1875H45V24.375H15Z" fill="#57A4FF"/>
<path d="M42.1875 0.9375H17.8125L16.875 9.375H43.125L42.1875 0.9375Z" fill="#57A4FF"/>
<path d="M46.875 8.43751H43.9686L43.125 0.834519C43.0723 0.357071 42.6677 -0.00273096 42.1875 1.56189e-05H17.8125C17.3346 1.56189e-05 16.9331 0.35936 16.8805 0.834519L16.0359 8.43751H13.125C12.6073 8.43751 12.1875 8.85728 12.1875 9.37501V14.0625C12.1875 14.5802 12.6073 15 13.125 15H15.9572L16.1334 23.4375H15C14.4823 23.4375 14.0625 23.8573 14.0625 24.375V42.1875C14.0625 42.7052 14.4823 43.125 15 43.125H16.5468L16.875 59.0822C16.8855 59.5921 17.3025 60 17.8125 60H42.1875C42.6979 60 43.1145 59.5921 43.125 59.0822L43.4614 43.125H45C45.5177 43.125 45.9375 42.7052 45.9375 42.1875V24.375C45.9375 23.8573 45.5177 23.4375 45 23.4375H43.8666L44.0428 15H46.875C47.3927 15 47.8125 14.5802 47.8125 14.0625V9.37501C47.8125 8.85728 47.3927 8.43751 46.875 8.43751ZM18.6562 1.87502H41.353L42.0827 8.43751H17.9224L18.6562 1.87502ZM41.2697 58.125H18.7303L18.4227 43.125H41.5855L41.2697 58.125ZM44.0625 41.25H15.9375V25.3125H44.0625V41.25ZM41.9916 23.4375H18.0084L17.8322 15H42.1678L41.9916 23.4375ZM45.9375 13.125H14.0625V10.3125H45.9375V13.125Z" fill="#004FAC"/>
<path d="M41.25 34.6875C40.7323 34.6875 40.3125 35.1073 40.3125 35.625V37.5H39.375C38.8573 37.5 38.4375 37.9198 38.4375 38.4375C38.4375 38.9552 38.8573 39.375 39.375 39.375H41.25C41.7677 39.375 42.1875 38.9552 42.1875 38.4375V35.625C42.1875 35.1073 41.7677 34.6875 41.25 34.6875Z" fill="#004FAC"/>
<path d="M36.5625 37.5H34.6875C34.1698 37.5 33.75 37.9198 33.75 38.4375C33.75 38.9552 34.1698 39.375 34.6875 39.375H36.5625C37.0802 39.375 37.5 38.9552 37.5 38.4375C37.5 37.9198 37.0802 37.5 36.5625 37.5Z" fill="#004FAC"/>
</svg>
