<svg width="73" height="40" viewBox="0 0 73 40" fill="none" xmlns="http://www.w3.org/2000/svg">
<path d="M30.2633 29.1824L29.1398 28.7855L30 20.234L30.0164 16.3715C29.9224 16.6968 29.7252 16.9828 29.4545 17.1863C29.1838 17.3897 28.8543 17.4997 28.5156 17.4996H27.5781L27.7344 13.7496H28.5156C28.8582 13.7495 29.1913 13.862 29.4636 14.0698C29.7359 14.2776 29.9324 14.5692 30.0226 14.8996L30.0383 11.2785C30.0384 9.96537 29.7798 8.66507 29.2773 7.45186C28.7749 6.23865 28.0383 5.13631 27.1098 4.20777C26.1813 3.27924 25.0789 2.5427 23.8657 2.04023C22.6525 1.53776 21.3522 1.27919 20.0391 1.2793H20.0383C17.3862 1.2793 14.8428 2.33276 12.9675 4.20795C11.0921 6.08315 10.0385 8.62649 10.0383 11.2785V15.3418C10.0383 14.9274 10.2029 14.53 10.4959 14.2369C10.7889 13.9439 11.1864 13.7793 11.6008 13.7793H11.9133C13.5694 13.9088 15.2353 13.8348 16.8734 13.559H16.875C16.8761 13.5589 16.8771 13.5586 16.8781 13.5582C18.8078 13.2309 20.9633 12.5496 22.6844 11.173H22.6851C23.0008 11.027 23.2664 10.8957 23.4594 10.7871C23.5484 10.7371 23.6219 10.6926 23.6773 10.6535L24.9601 10.7793C25.1533 10.8736 25.3189 11.0159 25.4414 11.1926L25.5437 12.316L25.6633 13.6262L26.6109 13.7418H26.6117C26.7103 13.7663 26.8116 13.7787 26.9133 13.7785H27.5383V17.5293C27.539 18.8336 27.1993 20.1155 26.5527 21.2482C25.9061 22.381 24.975 23.3253 23.8516 23.9879L24.1195 26.734L24.1406 26.9527L24.4719 27.077L24.4726 27.0777L27.1414 28.0809L28.7726 28.6941C28.7836 28.9754 28.7883 29.2668 28.7883 29.4043C28.7883 33.2012 24.8711 36.2793 20.0383 36.2793C17.9656 36.2793 16.0617 35.7129 14.5625 34.766C16.364 30.127 16.3539 25.9301 16.3078 24.7402C16.2992 24.5215 16.2891 24.4043 16.2891 24.4043L16.3078 24.4027L16.9156 24.3496C16.7078 24.2551 16.5047 24.1504 16.3078 24.0371C15.1621 23.3804 14.2101 22.4327 13.5482 21.2899C12.8863 20.1472 12.5379 18.8499 12.5383 17.5293H11.6008C11.1865 17.5292 10.7893 17.3646 10.4963 17.0718C10.2033 16.779 10.0386 16.3818 10.0383 15.9676L10.0391 29.1168L9.85233 29.1824C8.63306 29.6128 7.57729 30.4108 6.83052 31.4664C6.08376 32.522 5.68276 33.7832 5.6828 35.0762V38.7793H34.4328V35.0762C34.4328 33.7832 34.0318 32.522 33.2851 31.4664C32.5383 30.4108 31.4825 29.6128 30.2633 29.1824Z" fill="#A5CEFF"/>
<path d="M30.0781 15.3121C30.0785 15.173 30.0598 15.0345 30.0227 14.9004L30.0164 16.3715C30.0577 16.2304 30.0785 16.0841 30.0781 15.9371V15.3121Z" fill="#A5CEFF"/>
<path d="M30.4133 28.5641L29.7953 28.3453C30.8203 22.1977 30.6344 15.9172 30.625 15.6141V11.25C30.625 5.39141 25.8586 0.625 20 0.625C14.1414 0.625 9.375 5.39141 9.375 11.25V28.643C8.08697 29.1476 6.98074 30.0283 6.2004 31.1706C5.42005 32.3128 5.00176 33.6635 5 35.0469V38.75C5 38.9158 5.06585 39.0747 5.18306 39.1919C5.30027 39.3092 5.45924 39.375 5.625 39.375H34.375C34.5408 39.375 34.6997 39.3092 34.8169 39.1919C34.9342 39.0747 35 38.9158 35 38.75V35.0469C34.9986 33.6249 34.5569 32.2383 33.7356 31.0775C32.9143 29.9167 31.7537 29.0387 30.4133 28.5641ZM9.375 38.125H6.25V35.0469C6.25119 33.9996 6.54423 32.9734 7.09623 32.0835C7.64823 31.1935 8.43734 30.475 9.375 30.0086V38.125ZM26.875 14.375V17.5C26.875 19.3234 26.1507 21.072 24.8614 22.3614C23.572 23.6507 21.8234 24.375 20 24.375C18.1766 24.375 16.428 23.6507 15.1386 22.3614C13.8493 21.072 13.125 19.3234 13.125 17.5V14.4367C13.2133 14.4375 13.3055 14.4383 13.4008 14.4383C15.015 14.4433 16.6242 14.2587 18.1953 13.8883C20.3641 13.3594 22.1359 12.468 23.4773 11.25H24.375C24.5407 11.2502 24.6995 11.3161 24.8167 11.4333C24.9339 11.5505 24.9998 11.7093 25 11.875V12.5C25.0007 12.9971 25.1984 13.4736 25.5499 13.8251C25.9014 14.1766 26.3779 14.3743 26.875 14.375ZM16.9023 25.0109C17.8894 25.4182 18.947 25.6269 20.0148 25.625C21.0825 25.6231 22.1394 25.4107 23.125 25V25.7695C23.1255 26.2219 23.266 26.6631 23.5274 27.0324C23.7887 27.4017 24.1579 27.681 24.5844 27.832L28.1156 29.0781C28.1211 29.1766 28.125 29.2758 28.125 29.375C28.125 32.8211 24.4805 35.625 20 35.625C18.3117 35.625 16.6594 35.2133 15.2898 34.4617C15.9214 32.7162 16.372 30.9103 16.6344 29.0727C16.8317 27.728 16.9213 26.3698 16.9023 25.0109ZM25 26.6539C24.8173 26.589 24.6592 26.4691 24.5473 26.3108C24.4354 26.1525 24.3752 25.9634 24.375 25.7695V24.3438C25.4347 23.6659 26.3228 22.7516 26.9694 21.6725C27.6161 20.5935 28.0036 19.3791 28.1016 18.125H28.4375C28.7677 18.1253 29.0936 18.0505 29.3906 17.9062C29.3656 20.25 29.2172 24.1008 28.5977 27.9234L25 26.6539ZM28.125 16.875V14.375H28.4375C28.6861 14.3752 28.9244 14.474 29.1002 14.6498C29.276 14.8256 29.3748 15.0639 29.375 15.3125V15.9375C29.3748 16.1861 29.276 16.4244 29.1002 16.6002C28.9244 16.776 28.6861 16.8748 28.4375 16.875H28.125ZM10.625 11.25C10.625 8.7636 11.6127 6.37903 13.3709 4.62087C15.129 2.86272 17.5136 1.875 20 1.875C22.4864 1.875 24.871 2.86272 26.6291 4.62087C28.3873 6.37903 29.375 8.7636 29.375 11.25V13.3367C29.0823 13.1969 28.7619 13.1245 28.4375 13.125H26.875C26.7093 13.1248 26.5505 13.0589 26.4333 12.9417C26.3161 12.8245 26.2502 12.6657 26.25 12.5V11.875C26.2494 11.418 26.0821 10.9769 25.7795 10.6344C25.4769 10.292 25.0597 10.0717 24.6062 10.0148C25.4097 8.93801 25.9661 7.69742 26.2359 6.38125C26.255 6.30035 26.2577 6.21645 26.244 6.13448C26.2302 6.0525 26.2003 5.9741 26.1559 5.90384C26.1114 5.83359 26.0534 5.7729 25.9853 5.72534C25.9171 5.67777 25.8401 5.64428 25.7589 5.62682C25.6776 5.60936 25.5937 5.60828 25.512 5.62366C25.4303 5.63903 25.3525 5.67055 25.2832 5.71636C25.2138 5.76217 25.1543 5.82135 25.1081 5.89044C25.0619 5.95954 25.0299 6.03715 25.0141 6.11875C24.6703 7.72344 23.9508 9.0612 22.8555 10.132C22.8205 10.1595 22.7883 10.1904 22.7594 10.2242C21.5695 11.3508 19.9594 12.1648 17.9289 12.6664C15.8359 13.182 13.8203 13.2102 12.7445 13.175C12.25 13.1594 11.9539 13.1297 11.9406 13.1281C11.9187 13.1258 11.5625 13.125 11.5625 13.125C11.2381 13.1245 10.9177 13.1969 10.625 13.3367V11.25ZM10.625 15.3125C10.6252 15.0639 10.724 14.8256 10.8998 14.6498C11.0756 14.474 11.3139 14.3752 11.5625 14.375H11.8391C11.8492 14.3758 11.8609 14.3773 11.875 14.3781V16.875H11.5625C11.3139 16.8748 11.0756 16.776 10.8998 16.6002C10.724 16.4244 10.6252 16.1861 10.625 15.9375V15.3125ZM12.1539 38.125H10.625V17.9133C10.9177 18.0531 11.2381 18.1255 11.5625 18.125H11.8984C11.9964 19.3791 12.3839 20.5935 13.0306 21.6725C13.6772 22.7516 14.5653 23.6659 15.625 24.3438V24.375H15.6258C15.6258 24.3922 15.6258 24.4094 15.6273 24.4266C15.6328 24.4984 16.1602 31.5969 12.1539 38.125ZM33.75 38.125H13.6047C14.0613 37.32 14.4703 36.4888 14.8297 35.6359C16.3602 36.4484 18.1328 36.875 20 36.875C22.4766 36.875 24.8109 36.1125 26.5734 34.7281C28.3367 33.3422 29.3258 31.4992 29.3727 29.5219L29.9977 29.7422C31.0942 30.1308 32.0436 30.8494 32.7155 31.7992C33.3873 32.749 33.7487 33.8835 33.75 35.0469V38.125Z" fill="#004FAC"/>
<path d="M23.75 16.25C23.9158 16.25 24.0747 16.1842 24.1919 16.0669C24.3092 15.9497 24.375 15.7908 24.375 15.625V15C24.375 14.8342 24.3092 14.6753 24.1919 14.5581C24.0747 14.4408 23.9158 14.375 23.75 14.375C23.5842 14.375 23.4253 14.4408 23.3081 14.5581C23.1908 14.6753 23.125 14.8342 23.125 15V15.625C23.125 15.7908 23.1908 15.9497 23.3081 16.0669C23.4253 16.1842 23.5842 16.25 23.75 16.25Z" fill="#004FAC"/>
<path d="M16.25 16.25C16.4158 16.25 16.5747 16.1842 16.6919 16.0669C16.8092 15.9497 16.875 15.7908 16.875 15.625V15C16.875 14.8342 16.8092 14.6753 16.6919 14.5581C16.5747 14.4408 16.4158 14.375 16.25 14.375C16.0842 14.375 15.9253 14.4408 15.8081 14.5581C15.6908 14.6753 15.625 14.8342 15.625 15V15.625C15.625 15.7908 15.6908 15.9497 15.8081 16.0669C15.9253 16.1842 16.0842 16.25 16.25 16.25Z" fill="#004FAC"/>
<path d="M20 23.125C20.8285 23.1241 21.6228 22.7945 22.2087 22.2087C22.7945 21.6228 23.1241 20.8285 23.125 20C23.125 19.8342 23.0592 19.6753 22.9419 19.5581C22.8247 19.4408 22.6658 19.375 22.5 19.375H17.5C17.3342 19.375 17.1753 19.4408 17.0581 19.5581C16.9408 19.6753 16.875 19.8342 16.875 20C16.8759 20.8285 17.2055 21.6228 17.7913 22.2087C18.3772 22.7945 19.1715 23.1241 20 23.125ZM21.7679 20.625C21.6387 20.9906 21.3993 21.3072 21.0827 21.5312C20.7661 21.7551 20.3878 21.8754 20 21.8754C19.6122 21.8754 19.2339 21.7551 18.9173 21.5312C18.6007 21.3072 18.3613 20.9906 18.2321 20.625H21.7679Z" fill="#004FAC"/>
<path d="M64.5906 28.1492L57.375 26.25L56.6453 27.0836C56.1907 27.6032 55.6302 28.0196 55.0015 28.3049C54.3728 28.5901 53.6904 28.7377 53 28.7377C52.3096 28.7377 51.6272 28.5901 50.9985 28.3049C50.3698 28.0196 49.8093 27.6032 49.3547 27.0836L48.625 26.25L41.4094 28.1492C40.0742 28.5005 38.893 29.2839 38.0501 30.3773C37.2071 31.4707 36.75 32.8124 36.75 34.193V38.75H69.25V34.193C69.25 32.8124 68.7929 31.4707 67.9499 30.3773C67.107 29.2839 65.9258 28.5005 64.5906 28.1492Z" fill="#A5CEFF"/>
<path d="M61.125 11.6834V8.74981H61.1016C60.9439 6.70917 60.022 4.80318 58.52 3.41278C57.0181 2.02238 55.0467 1.25 53 1.25C50.9533 1.25 48.9819 2.02238 47.48 3.41278C45.978 4.80318 45.0561 6.70917 44.8984 8.74981H44.875V11.7967C51.75 11.7967 56.7555 8.77013 56.7555 8.77013C57.7688 10.2678 59.2789 11.3443 61.125 11.6834Z" fill="#A5CEFF"/>
<path d="M49.25 15.625C49.9404 15.625 50.5 15.0654 50.5 14.375C50.5 13.6846 49.9404 13.125 49.25 13.125C48.5596 13.125 48 13.6846 48 14.375C48 15.0654 48.5596 15.625 49.25 15.625Z" fill="#004FAC"/>
<path d="M56.75 15.625C57.4404 15.625 58 15.0654 58 14.375C58 13.6846 57.4404 13.125 56.75 13.125C56.0596 13.125 55.5 13.6846 55.5 14.375C55.5 15.0654 56.0596 15.625 56.75 15.625Z" fill="#004FAC"/>
<path d="M64.75 27.5445L58 25.768V23.6211C59.7531 22.2672 61.2164 20.3281 61.6313 18.125H62.0625C62.6425 18.1244 63.1985 17.8937 63.6086 17.4836C64.0187 17.0735 64.2494 16.5175 64.25 15.9375V14.0625C64.2494 13.4825 64.0187 12.9265 63.6086 12.5164C63.1985 12.1063 62.6425 11.8756 62.0625 11.875H61.75C61.7498 11.8428 61.7472 11.8107 61.7422 11.7789C61.7471 11.7474 61.7498 11.7155 61.75 11.6836V9.375C61.75 7.05436 60.8281 4.82876 59.1872 3.18782C57.5462 1.54687 55.3206 0.625 53 0.625C50.6794 0.625 48.4538 1.54687 46.8128 3.18782C45.1719 4.82876 44.25 7.05436 44.25 9.375V11.7969C44.2531 11.8228 44.2531 11.8491 44.25 11.875H43.9375C43.3575 11.8756 42.8015 12.1063 42.3914 12.5164C41.9813 12.9265 41.7506 13.4825 41.75 14.0625V15.9375C41.7506 16.5175 41.9813 17.0735 42.3914 17.4836C42.8015 17.8937 43.3575 18.1244 43.9375 18.125H44.3688C44.7836 20.3281 46.2469 22.2672 48 23.6211V25.768L41.2508 27.5445C39.7824 27.9315 38.4832 28.7935 37.5561 29.9961C36.6289 31.1988 36.1257 32.6744 36.125 34.193V38.75C36.125 38.9158 36.1908 39.0747 36.3081 39.1919C36.4253 39.3092 36.5842 39.375 36.75 39.375H69.25C69.4158 39.375 69.5747 39.3092 69.6919 39.1919C69.8092 39.0747 69.875 38.9158 69.875 38.75V34.193C69.8743 32.6745 69.3713 31.199 68.4442 29.9963C67.5172 28.7937 66.2183 27.9317 64.75 27.5445ZM61.75 13.125H62.0625C62.3111 13.1252 62.5494 13.224 62.7252 13.3998C62.901 13.5756 62.9998 13.8139 63 14.0625V15.9375C62.9998 16.1861 62.901 16.4244 62.7252 16.6002C62.5494 16.776 62.3111 16.8748 62.0625 16.875H61.75V13.125ZM44.25 16.875H43.9375C43.6889 16.8748 43.4506 16.776 43.2748 16.6002C43.099 16.4244 43.0002 16.1861 43 15.9375V14.0625C43.0002 13.8139 43.099 13.5756 43.2748 13.3998C43.4506 13.224 43.6889 13.1252 43.9375 13.125H44.25V16.875ZM45.5 9.375C45.5 7.38588 46.2902 5.47822 47.6967 4.0717C49.1032 2.66518 51.0109 1.875 53 1.875C54.9891 1.875 56.8968 2.66518 58.3033 4.0717C59.7098 5.47822 60.5 7.38588 60.5 9.375V10.8836C59.1781 10.4486 58.0414 9.58082 57.2734 8.42031C57.1837 8.28761 57.0465 8.19441 56.8901 8.15996C56.7337 8.1255 56.57 8.15242 56.4328 8.23516C56.3852 8.26328 51.7883 10.9898 45.5 11.1633V9.375ZM45.5 16.875V12.4133C50.9891 12.2727 55.1742 10.3266 56.5766 9.58516C57.5639 10.8581 58.9426 11.7708 60.5 12.1828V16.875C60.5 17.9492 60.1516 20.0625 57.8172 22.1547C56.3125 23.5039 54.4211 24.375 53 24.375C51.5789 24.375 49.6875 23.5039 48.1828 22.1547C45.8484 20.0625 45.5 17.9492 45.5 16.875ZM56.75 24.4609V26.0148L56.175 26.6727C55.779 27.1252 55.2909 27.4879 54.7433 27.7364C54.1957 27.9849 53.6013 28.1134 53 28.1134C52.3987 28.1134 51.8043 27.9849 51.2567 27.7364C50.7091 27.4879 50.221 27.1252 49.825 26.6727L49.25 26.0148V24.4609C50.5297 25.2016 51.8641 25.625 53 25.625C54.1359 25.625 55.4703 25.2016 56.75 24.4609ZM68.625 38.125H65.5V35C65.5 34.8342 65.4342 34.6753 65.3169 34.5581C65.1997 34.4408 65.0408 34.375 64.875 34.375C64.7092 34.375 64.5503 34.4408 64.4331 34.5581C64.3158 34.6753 64.25 34.8342 64.25 35V38.125H41.75V35C41.75 34.8342 41.6842 34.6753 41.5669 34.5581C41.4497 34.4408 41.2908 34.375 41.125 34.375C40.9592 34.375 40.8003 34.4408 40.6831 34.5581C40.5658 34.6753 40.5 34.8342 40.5 35V38.125H37.375V34.193C37.3755 32.9506 37.7872 31.7433 38.5458 30.7594C39.3044 29.7755 40.3673 29.0704 41.5688 28.7539L48.4094 26.9531L48.8844 27.4953C49.3976 28.082 50.0303 28.5523 50.7402 28.8744C51.45 29.1966 52.2205 29.3633 53 29.3633C53.7795 29.3633 54.55 29.1966 55.2598 28.8744C55.9697 28.5523 56.6024 28.082 57.1156 27.4953L57.5906 26.9531L64.432 28.7539C65.6333 29.0706 66.696 29.7758 67.4544 30.7597C68.2129 31.7435 68.6245 32.9507 68.625 34.193V38.125Z" fill="#004FAC"/>
<path d="M53 22.458C53.8285 22.4571 54.6228 22.1275 55.2087 21.5417C55.7945 20.9558 56.1241 20.1615 56.125 19.333C56.125 19.1672 56.0592 19.0083 55.9419 18.8911C55.8247 18.7739 55.6658 18.708 55.5 18.708H50.5C50.3342 18.708 50.1753 18.7739 50.0581 18.8911C49.9408 19.0083 49.875 19.1672 49.875 19.333C49.8759 20.1615 50.2055 20.9558 50.7913 21.5417C51.3772 22.1275 52.1715 22.4571 53 22.458ZM54.7679 19.958C54.6387 20.3237 54.3993 20.6403 54.0827 20.8642C53.7661 21.0881 53.3878 21.2084 53 21.2084C52.6122 21.2084 52.2339 21.0881 51.9173 20.8642C51.6007 20.6403 51.3613 20.3237 51.2321 19.958H54.7679Z" fill="#004FAC"/>
</svg>
