<svg width="60" height="60" viewBox="0 0 60 60" fill="none" xmlns="http://www.w3.org/2000/svg">
<g clip-path="url(#clip0_254_1629)">
<path d="M4.68748 5.625L0.9375 24.3749H59.0621L55.3122 5.625H4.68748Z" fill="#57A4FF"/>
<path d="M1.875 24.375V28.125C1.875 30.1963 3.55407 31.875 5.62498 31.875H7.49996C9.57133 31.875 11.2499 30.1963 11.2499 28.125V24.375H1.875Z" fill="#57A4FF"/>
<path d="M11.2499 24.375V28.125C11.2499 30.1963 12.9289 31.875 14.9999 31.875H16.8748C18.9462 31.875 20.6248 30.1963 20.6248 28.125V24.375H11.2499Z" fill="#57A4FF"/>
<path d="M20.6249 24.375V28.125C20.6249 30.1963 22.3039 31.875 24.3749 31.875H26.2498C28.3212 31.875 29.9998 30.1963 29.9998 28.125V24.375H20.6249Z" fill="#57A4FF"/>
<path d="M29.9998 24.375V28.125C29.9998 30.1963 31.6788 31.875 33.7497 31.875H35.6247C37.6961 31.875 39.3747 30.1963 39.3747 28.125V24.375H29.9998Z" fill="#57A4FF"/>
<path d="M39.3748 24.375V28.125C39.3748 30.1963 41.0538 31.875 43.1247 31.875H44.9997C47.0711 31.875 48.7497 30.1963 48.7497 28.125V24.375H39.3748Z" fill="#57A4FF"/>
<path d="M48.7496 28.125C48.7496 30.1963 50.4287 31.875 52.4996 31.875H54.3746C56.446 31.875 58.1246 30.1963 58.1246 28.125V24.375H48.7496V28.125Z" fill="#57A4FF"/>
<path d="M14.9999 35.625H26.2498V54.3749H14.9999V35.625Z" fill="#57A4FF"/>
<path d="M35.6248 35.625H44.9997V44.9999H35.6248V35.625Z" fill="#57A4FF"/>
<path d="M55.3122 4.6875H4.68749C4.24209 4.6875 3.85803 5.00107 3.76876 5.43777L0.0187857 24.1876C-0.0375188 24.4632 0.033434 24.7498 0.211503 24.9681C0.389572 25.186 0.655989 25.3128 0.937512 25.3124V28.1248C0.940258 29.9866 2.04392 31.6702 3.74999 32.415V54.3747C3.74999 54.8924 4.16976 55.3122 4.68749 55.3122H55.3122C55.8299 55.3122 56.2497 54.8924 56.2497 54.3747V32.415C57.9562 31.6702 59.0599 29.9866 59.0621 28.1248V25.3124C59.3437 25.3128 59.6105 25.186 59.7886 24.9681C59.9667 24.7498 60.0372 24.4632 59.9809 24.1876L56.2309 5.43777C56.1421 5.00107 55.758 4.6875 55.3122 4.6875ZM2.8125 28.1248V25.3124H10.3125V28.1248C10.3125 29.6785 9.05361 30.9373 7.49997 30.9373H5.62498C4.0718 30.9373 2.8125 29.6785 2.8125 28.1248ZM19.6874 25.3124V28.1248C19.6874 29.6785 18.4286 30.9373 16.8749 30.9373H14.9999C13.4467 30.9373 12.1874 29.6785 12.1874 28.1248V25.3124H19.6874ZM29.0623 25.3124V28.1248C29.0623 29.6785 27.8035 30.9373 26.2499 30.9373H24.3749C22.8217 30.9373 21.5624 29.6785 21.5624 28.1248V25.3124H29.0623ZM38.4373 25.3124V28.1248C38.4373 29.6785 37.1784 30.9373 35.6248 30.9373H33.7498C32.1966 30.9373 30.9373 29.6785 30.9373 28.1248V25.3124H38.4373ZM47.8122 25.3124V28.1248C47.8122 29.6785 46.5534 30.9373 44.9997 30.9373H43.1247C41.5716 30.9373 40.3123 29.6785 40.3123 28.1248V25.3124H47.8122ZM15.9374 53.4372V36.5623H25.3124V53.4372H15.9374ZM54.3747 53.4372H27.1873V35.6248C27.1873 35.1071 26.7676 34.6873 26.2499 34.6873H14.9999C14.4822 34.6873 14.0624 35.1071 14.0624 35.6248V53.4372H5.62498V32.8123H7.49997C8.98128 32.8082 10.3729 32.1019 11.2499 30.9085C12.1275 32.1019 13.5191 32.8082 14.9999 32.8123H16.8749C18.3562 32.8082 19.7478 32.1019 20.6249 30.9085C21.5024 32.1019 22.894 32.8082 24.3749 32.8123H26.2499C27.7312 32.8082 29.1228 32.1019 29.9998 30.9085C30.8774 32.1019 32.2689 32.8082 33.7498 32.8123H35.6248C37.1061 32.8082 38.4977 32.1019 39.3748 30.9085C40.2523 32.1019 41.6439 32.8082 43.1247 32.8123H44.9997C46.481 32.8082 47.8726 32.1019 48.7497 30.9085C49.6272 32.1019 51.0188 32.8082 52.4997 32.8123H54.3747V53.4372ZM57.1872 28.1248C57.1872 29.6785 55.9283 30.9373 54.3747 30.9373H52.4997C50.9465 30.9373 49.6872 29.6785 49.6872 28.1248V25.3124H57.1872V28.1248ZM2.08146 23.4374L5.45653 6.56249H54.5436L57.9187 23.4374H2.08146Z" fill="#004FAC"/>
<path d="M45.9372 44.9999V35.625C45.9372 35.1073 45.5174 34.6875 44.9997 34.6875H35.6247C35.107 34.6875 34.6873 35.1073 34.6873 35.625V44.9999C34.6873 45.5177 35.107 45.9374 35.6247 45.9374H44.9997C45.5174 45.9374 45.9372 45.5177 45.9372 44.9999ZM44.0622 44.0624H36.5622V36.5625H44.0622V44.0624Z" fill="#004FAC"/>
<path d="M51.5622 49.6875H45.9372C45.4195 49.6875 44.9998 50.1073 44.9998 50.625C44.9998 51.1427 45.4195 51.5625 45.9372 51.5625H51.5622C52.0799 51.5625 52.4997 51.1427 52.4997 50.625C52.4997 50.1073 52.0799 49.6875 51.5622 49.6875Z" fill="#004FAC"/>
<path d="M42.1872 49.6875H40.3122C39.7945 49.6875 39.3748 50.1073 39.3748 50.625C39.3748 51.1427 39.7945 51.5625 40.3122 51.5625H42.1872C42.705 51.5625 43.1247 51.1427 43.1247 50.625C43.1247 50.1073 42.705 49.6875 42.1872 49.6875Z" fill="#004FAC"/>
</g>
<defs>
<clipPath id="clip0_254_1629">
<rect width="60" height="60" fill="white"/>
</clipPath>
</defs>
</svg>
