<svg width="166" height="51" viewBox="0 0 166 51" fill="none" xmlns="http://www.w3.org/2000/svg">
<path d="M87.5286 11.073H89.8236V14.8368H87.5286V21.2858H83.6501V6.71255H87.5286V11.073ZM82.7321 18.2334C81.6993 18.6695 79.7945 18.9219 77.9585 18.9219H69.5588V6.94205H81.6075V9.97145H73.3914V11.4861H81.2174V14.3549H73.3914V15.8925H78.2109C79.9781 15.8925 81.6993 15.6401 82.7321 15.2499V18.2334ZM74.1717 20.1612V22.8923H87.804V26.3118H70.2243V20.1612H74.1717ZM100.998 14.0565C98.7262 17.063 95.3296 18.899 91.5888 18.899V15.227C95.4903 15.227 99.1164 11.8304 99.8278 6.6437L103.775 7.26335C103.592 8.59445 103.247 9.8567 102.742 11.0042L111.027 15.8237L109.031 18.9908L100.998 14.0565ZM103.087 17.6597V21.9972H111.027V25.6233H91.1986V21.9972H99.1393V17.6597H103.087ZM127.527 13.7811V17.7056H123.946V6.80435H127.527V10.2009H129.156V6.71255H132.782V18.3482H129.156V13.7811H127.527ZM122.615 6.94205V17.3154H113.619V6.94205H117.107V9.09935H119.127V6.94205H122.615ZM117.107 14.309H119.127V12.0369H117.107V14.309ZM123.763 18.3711C128.926 18.3711 132.966 19.4268 132.966 22.4562C132.966 25.4856 128.926 26.5413 123.763 26.5413C118.622 26.5413 114.56 25.4856 114.56 22.4562C114.56 19.4268 118.622 18.3711 123.763 18.3711ZM123.763 23.5349C126.54 23.5349 128.835 23.2824 128.835 22.4562C128.835 21.653 126.54 21.3776 123.763 21.3776C120.986 21.3776 118.691 21.653 118.691 22.4562C118.691 23.2824 120.986 23.5349 123.763 23.5349ZM150.222 20.7579V17.6367H136.429V14.0336H150.222V10.7976H136.429V7.17155H154.101V20.7579H150.222ZM135.351 21.9972H155.179V25.6233H135.351V21.9972Z" fill="white"/>
<path d="M92.1168 46.5899L91.2048 44.0619H86.1488L85.2368 46.5899H82.2288L87.2848 33.5499H90.3088L95.3648 46.5899H92.1168ZM87.0448 41.5339H90.3088L88.6768 36.9899L87.0448 41.5339ZM96.674 46.5899V33.5499H101.73C106.05 33.5499 108.722 36.2219 108.722 40.0779C108.722 43.9339 106.05 46.5899 101.73 46.5899H96.674ZM99.586 44.0139H101.778C104.274 44.0139 105.81 42.5899 105.81 40.0779C105.81 37.5659 104.274 36.1259 101.778 36.1259H99.586V44.0139ZM110.471 46.5899V33.5499H112.791L117.287 40.8459L121.783 33.5499H124.103V46.5899H121.191V39.4379L118.167 44.4459H116.407L113.383 39.4379V46.5899H110.471ZM126.408 33.5499H129.32V46.5899H126.408V33.5499ZM131.627 46.5899V33.5499H134.059L140.571 41.3899V33.3899H143.483V46.4299H141.051L134.539 38.5899V46.5899H131.627Z" fill="#5CE7FF"/>
<g clip-path="url(#clip0_192_840)">
<path fill-rule="evenodd" clip-rule="evenodd" d="M28.62 9.72084C32.5292 9.40603 36.523 9.84549 40.3694 11.1512C53.0576 15.4528 60.0521 27.7365 57.9533 40.3391C51.696 42.0188 46.2343 42.4688 41.5402 41.5751L41.6681 41.2286C42.4552 39.1032 42.9517 36.9122 43.1035 34.6938C43.8146 24.2842 37.013 15.9725 28.62 9.72084Z" fill="white"/>
<path fill-rule="evenodd" clip-rule="evenodd" d="M13.2171 2.55005C37.2428 13.9442 45.0092 27.616 40.133 40.7786C32.4121 38.1714 26.3455 32.7374 22.2671 24.5398C25.1161 38.4566 38.4331 49.2973 59.9979 41.3723C36.2389 60.9767 -4.15435 37.2016 13.2171 2.55005Z" fill="white"/>
</g>
<defs>
<clipPath id="clip0_192_840">
<rect width="51" height="45.9" fill="white" transform="translate(9 2.55005)"/>
</clipPath>
</defs>
</svg>
