<svg width="24" height="24" viewBox="0 0 24 24" fill="none" xmlns="http://www.w3.org/2000/svg">
<path d="M20.7135 21.38C20.5402 21.38 20.3735 21.3133 20.2402 21.1867L16.9202 17.86C15.3068 19.2467 13.3002 19.9467 11.2868 19.9467C9.06684 19.9467 6.84684 19.1 5.16017 17.4133C3.52017 15.7733 2.62017 13.6 2.62017 11.2867C2.62017 8.97333 3.52017 6.79333 5.16017 5.16C8.54017 1.78 14.0402 1.78 17.4135 5.16C20.6335 8.38 20.7802 13.52 17.8602 16.92L21.1868 20.2467C21.4468 20.5067 21.4468 20.9267 21.1868 21.1867C21.0535 21.3133 20.8868 21.38 20.7135 21.38ZM16.4735 6.1C15.0468 4.67333 13.1668 3.95333 11.2868 3.95333C9.40684 3.95333 7.5335 4.66667 6.10017 6.1C4.7135 7.48667 3.9535 9.32667 3.9535 11.2867C3.9535 13.2467 4.7135 15.0867 6.10017 16.4733C8.96017 19.3333 13.6135 19.3333 16.4735 16.4733C19.3335 13.6133 19.3335 8.96 16.4735 6.1Z" fill="#222222"/>
</svg>
